<svg width="20" height="16" viewBox="0 0 20 16" fill="none" xmlns="http://www.w3.org/2000/svg">
<path d="M19.7684 6.5647L19.7796 9.47205L18.3259 9.47764L18.3315 10.9313L16.8778 10.9369L16.8834 12.3906L15.4297 12.3962L15.4353 13.8498L13.9817 13.8554L13.9872 15.3091L11.0799 15.3203L11.0687 12.4129L12.5224 12.4073L12.5168 10.9536L13.9705 10.9481L13.9649 9.49439L0.881826 9.54465L0.870657 6.6373L13.9537 6.58704L13.9481 5.13336L12.4945 5.13895L12.4889 3.68527L11.0352 3.69086L11.024 0.783507L13.9314 0.772338L13.937 2.22601L15.3907 2.22043L15.3962 3.6741L16.8499 3.66852L16.8555 5.12219L18.3092 5.11661L18.3148 6.57029" fill="#E6BAFF"/>
</svg>
